# xmcd CD database file generated by Grip 3.3.1
# 
# Track frame offsets:
#       150
#       26134
#       45819
#       68585
#       88650
#       122007
#       146935
#       158991
#       186098
#       196040
#       207945
#       276063
# 
# Disc length: 3920 seconds
# 
# Revision: 1
# Processed by: cddbd v1.5.2PL0 Copyright (c) Steve Scherf et al.
# Submitted via: Grip 3.3.1
# 
DISCID=a40f4e0c
DTITLE=Vladimir Genin - Genin - In C est
DYEAR=2008
DGENRE=Classical
TTITLE0=Pantomime I - Intermède avec deux pantomimes plastiques, triptyc
TTITLE0=h for violin and piano (Tatiana Yurieva: violin, Vladimir Genin: pi
TTITLE0=ano)
TTITLE1=Intermède - Intermède avec deux pantomimes plastiques, triptych
TTITLE1=for violin and piano (Tatiana Yurieva: violin, Vladimir Genin: pia
TTITLE1=no)
TTITLE2=Pantomime II - Intermède avec deux pantomimes plastiques, tripty
TTITLE2=ch for violin and piano (Tatiana Yurieva: violin, Vladimir Genin: p
TTITLE2=iano)
TTITLE3=lockruf der blüte - Letzte Augenblicke, Seven songs for soprano,
TTITLE3=cello and piano to texts by X. Evangelista (Tatiana Kuindzhi: sopr
TTITLE3=ano, Arseniy Kotliarevsky: cello, Vladimir Genin: piano)
TTITLE4=deine wasser - Letzte Augenblicke, Seven songs for soprano, cello
TTITLE4=and piano to texts by X. Evangelista  (Tatiana Kuindzhi: soprano, 
TTITLE4=Arseniy Kotliarevsky: cello, Vladimir Genin: piano)
TTITLE5=letzte augenblicke - Letzte Augenblicke, Seven songs for soprano,
TTITLE5=cello and piano to texts by X. Evangelista  (Tatiana Kuindzhi: sop
TTITLE5=rano, Arseniy Kotliarevsky: cello, Vladimir Genin: piano)
TTITLE6=nur für diesen einen tanz - Letzte Augenblicke, Seven songs for 
TTITLE6=soprano, cello and piano to texts by X. Evangelista  (Tatiana Kuind
TTITLE6=zhi: soprano, Arseniy Kotliarevsky: cello, Vladimir Genin: piano)
TTITLE7=totgeburt - Letzte Augenblicke, Seven songs for soprano, cello and 
TTITLE7=piano to texts by X. Evangelista  (Tatiana Kuindzhi: soprano, Ars
TTITLE7=eniy Kotliarevsky: cello, Vladimir Genin: piano)
TTITLE8=die zeit durch finger jagend - Letzte Augenblicke, Seven songs fo
TTITLE8=r soprano, cello and piano to texts by X. Evangelista  (Tatiana Kui
TTITLE8=ndzhi: soprano, Arseniy Kotliarevsky: cello, Vladimir Genin: pian
TTITLE8=o)
TTITLE9=keine wahl - Letzte Augenblicke, Seven songs for soprano, cello &
TTITLE9=piano to texts by X. Evangelista  (Tatiana Kuindzhi: soprano, Ar
TTITLE9=seniy Kotliarevsky: cello, Vladimir Genin: piano)
TTITLE10=o Du o..., Duett for cello and violin (Tatiana Yurieva: violin, Ars
TTITLE10=eniy Kotliarevsky: cello)
TTITLE11=Double Espresso Plus, for violin, cello and piano (Tatiana Yurieva:
TTITLE11=violin, Arseniy Kotliarevsky: cello, Vladimir Genin: piano)
EXTD=
EXTT0=
EXTT1=
EXTT2=
EXTT3=
EXTT4=
EXTT5=
EXTT6=
EXTT7=
EXTT8=
EXTT9=
EXTT10=
EXTT11=
PLAYORDER=
